<svg width="16" height="16" viewBox="0 0 16 16" fill="none" xmlns="http://www.w3.org/2000/svg">
<g clip-path="url(#clip0_2007_2363)">
<g clip-path="url(#clip1_2007_2363)">
<path d="M0 1.6C0 0.716345 0.716344 0 1.6 0H14.4C15.2837 0 16 0.716344 16 1.6V14.4C16 15.2837 15.2837 16 14.4 16H1.6C0.716345 16 0 15.2837 0 14.4V1.6Z" fill="#292929"/>
<path d="M6.99536 7.16607L10.2785 10.4295C10.817 10.968 11.2766 11.3357 11.6575 11.5327C12.0383 11.7253 12.4192 11.8347 12.8 11.861V12.104H8.56472V11.861C8.81862 11.861 9.00029 11.8194 9.10973 11.7362C9.22354 11.6487 9.28045 11.5524 9.28045 11.4473C9.28045 11.3423 9.25856 11.2482 9.21479 11.165C9.17539 11.0818 9.03968 10.9264 8.80767 10.6988L5.73462 7.65855V10.528C5.73462 10.9789 5.76308 11.2766 5.81999 11.4211C5.86376 11.5305 5.95569 11.6246 6.09577 11.7034C6.28401 11.8085 6.48319 11.861 6.69331 11.861H6.99536V12.104H3.20001V11.861H3.5152C3.88291 11.861 4.14994 11.7538 4.31629 11.5393C4.42135 11.3992 4.47388 11.0621 4.47388 10.528V4.77592C4.47388 4.32503 4.44543 4.02517 4.38852 3.87633C4.34475 3.77127 4.25501 3.67934 4.1193 3.60054C3.92669 3.49548 3.72532 3.44295 3.5152 3.44295H3.20001V3.2H6.99536V3.44295H6.69331C6.48756 3.44295 6.28838 3.49329 6.09577 3.59398C5.96007 3.66402 5.86595 3.76908 5.81342 3.90916C5.76089 4.04924 5.73462 4.33816 5.73462 4.77592V7.50096C5.82217 7.41778 6.12204 7.13981 6.63421 6.66703C7.93435 5.47633 8.72012 4.6818 8.99153 4.28344C9.10973 4.10834 9.16882 3.95513 9.16882 3.8238C9.16882 3.72312 9.12286 3.63556 9.03093 3.56115C8.939 3.48235 8.7836 3.44295 8.56472 3.44295H8.36116V3.2H11.6312V3.44295C11.4386 3.44733 11.2635 3.47359 11.1059 3.52175C10.9483 3.5699 10.7557 3.66402 10.5281 3.8041C10.3004 3.93981 10.0203 4.16087 9.68756 4.4673C9.59126 4.55485 9.14693 5.00355 8.3546 5.8134L6.99536 7.16607Z" fill="white" stroke="white" stroke-width="0.5"/>
</g>
</g>
<defs>
<clipPath id="clip0_2007_2363">
<rect width="16" height="16" fill="white"/>
</clipPath>
<clipPath id="clip1_2007_2363">
<rect width="16" height="16" fill="white"/>
</clipPath>
</defs>
</svg>
